<?xml version="1.0" encoding="UTF-8"?>
<svg xmlns="http://www.w3.org/2000/svg" viewBox="0 0 1600 900" role="img" aria-labelledby="title desc">
  <title id="title">UNSC</title>
  <desc id="desc">Generated conference artwork for UNSC.</desc>
  <defs>
    <linearGradient id="bg" x1="0%" y1="0%" x2="100%" y2="100%">
      <stop offset="0%" stop-color="#fafaf9" />
      <stop offset="100%" stop-color="#e5e7eb" />
    </linearGradient>
    <linearGradient id="accent" x1="0%" y1="0%" x2="100%" y2="100%">
      <stop offset="0%" stop-color="#111827" />
      <stop offset="100%" stop-color="#d1d5db" />
    </linearGradient>
  </defs>
  <rect width="1600" height="900" fill="url(#bg)" />
  <circle cx="260" cy="220" r="180" fill="#d1d5db" opacity="0.75" />
  <circle cx="1360" cy="650" r="220" fill="#d1d5db" opacity="0.55" />
  <rect x="120" y="120" width="1360" height="660" rx="48" fill="#ffffff" opacity="0.82" />
  <rect x="120" y="120" width="16" height="660" fill="#111827" />
  <text x="220" y="260" fill="#111827" font-family="Montserrat, Arial, sans-serif" font-size="34" font-weight="700" letter-spacing="10">JMUN Committee</text>
  <text x="220" y="430" fill="#0f172a" font-family="Montserrat, Arial, sans-serif" font-size="108" font-weight="800">UNSC</text>
  <text x="220" y="540" fill="#0f172a" font-family="Montserrat, Arial, sans-serif" font-size="108" font-weight="800"></text>
  <text x="220" y="660" fill="#475569" font-family="Open Sans, Arial, sans-serif" font-size="34">Colegio Internacional de Caracas Model United Nations</text>
  <path d="M1180 210h160l72 72v408l-72 72h-160l72-72V282z" fill="url(#accent)" opacity="0.92" />
  <path d="M1040 322h180v44h-180zm0 104h240v44h-240zm0 104h180v44h-180z" fill="#ffffff" opacity="0.88" />
</svg>
